<svg id="Layer_1" data-name="Layer 1" xmlns="http://www.w3.org/2000/svg" viewBox="0 0 221 54"><defs><style>.cls-1{fill:#ee3024;}</style></defs><path class="cls-1" d="M25.35,46.35l2.87,7.53h-2l-.54-1.46H23l-.53,1.46h-2l2.87-7.53Zm-1.8,4.45H25.1l-.78-2.12Z"/><path class="cls-1" d="M32.67,46.22a3.41,3.41,0,0,1,1.92.52v1.91A2.85,2.85,0,0,0,32.83,48a2.07,2.07,0,0,0,0,4.13,2.78,2.78,0,0,0,1.76-.6v1.91a3.41,3.41,0,0,1-1.92.52,3.89,3.89,0,0,1,0-7.78Z"/><path class="cls-1" d="M39.76,46.22a3.35,3.35,0,0,1,1.91.52v1.91A2.8,2.8,0,0,0,39.92,48a2.07,2.07,0,0,0,0,4.13,2.73,2.73,0,0,0,1.75-.6v1.91a3.35,3.35,0,0,1-1.91.52,3.89,3.89,0,0,1,0-7.78Z"/><path class="cls-1" d="M45.46,53.88h-2V46.35h2Z"/><path class="cls-1" d="M47.36,46.35H50.2A3.52,3.52,0,0,1,54,50.11a3.52,3.52,0,0,1-3.81,3.77H47.36Zm2.75,5.82a2.07,2.07,0,0,0,0-4.13H49.3v4.13Z"/><path class="cls-1" d="M61,46.35V48H57.51v1.18h3.15v1.65H57.51v1.3H61v1.71H55.57V46.35Z"/><path class="cls-1" d="M69.39,53.88H67.8l-3.16-4.41v4.41h-1.9V46.35h1.84l2.91,4.14V46.35h1.9Z"/><path class="cls-1" d="M70.72,46.35h6.63V48H75v5.84H73V48H70.72Z"/><path class="cls-1" d="M82.21,46.35l2.87,7.53h-2l-.54-1.46H79.81l-.53,1.46h-2l2.87-7.53Zm-1.8,4.45H82l-.77-2.12Z"/><path class="cls-1" d="M86.34,46.35h2v5.82h3.37v1.71H86.34Z"/><path class="cls-1" d="M93.06,46.35h2v5.82H98.4v1.71H93.06Z"/><path class="cls-1" d="M103.48,46.35h2.07l-2.72,4.85v2.68h-2V51.2l-2.68-4.85h2.14l1.58,2.94Z"/><path class="cls-1" d="M115.34,46.35l1.15,4.42,1.05-4.42h2l-2,7.53h-1.81l-1.16-4.42-1.18,4.42h-1.8l-2-7.53h2l1.06,4.42,1.16-4.42Z"/><path class="cls-1" d="M126.17,46.35V48h-3.45v1.18h3.15v1.65h-3.15v1.3h3.45v1.71h-5.39V46.35Z"/><path class="cls-1" d="M127.78,51.57a4.58,4.58,0,0,0,2.41.79c.63,0,1.17-.14,1.17-.6s-.24-.49-.64-.64l-1.14-.33c-1.26-.37-2-1-2-2.25,0-1.49,1.26-2.32,2.84-2.32a4.74,4.74,0,0,1,2.37.57V48.6a4,4,0,0,0-2.28-.74c-.57,0-1,.15-1,.54s.24.47.63.6l1.14.34c1.37.43,2,1.15,2,2.31,0,1.63-1.39,2.35-3.08,2.35a5,5,0,0,1-2.46-.61Z"/><path class="cls-1" d="M142.46,46.35l2.87,7.53h-2l-.54-1.46h-2.74l-.52,1.46h-1.95l2.87-7.53Zm-1.81,4.45h1.55l-.77-2.12Z"/><path class="cls-1" d="M153.23,53.88h-1.59l-3.15-4.41v4.41h-1.91V46.35h1.84l2.91,4.14V46.35h1.9Z"/><path class="cls-1" d="M155.15,46.35H158a3.52,3.52,0,0,1,3.81,3.76A3.52,3.52,0,0,1,158,53.88h-2.84Zm2.75,5.82a2.07,2.07,0,0,0,0-4.13h-.81v4.13Z"/><path class="cls-1" d="M168.74,46.35V48H165.3v1.18h3.15v1.65H165.3v1.3h3.44v1.71h-5.38V46.35Z"/><path class="cls-1" d="M172.48,51.39v2.49h-1.95V46.35h3.39a2.46,2.46,0,0,1,2.73,2.56,2.26,2.26,0,0,1-1.49,2.27l1.76,2.7h-2.18l-1.57-2.49Zm0-1.57h1.23c.7,0,1-.36,1-.91s-.32-.91-1-.91h-1.23Z"/><path class="cls-1" d="M178.15,51.57a4.58,4.58,0,0,0,2.41.79c.63,0,1.17-.14,1.17-.6s-.24-.49-.64-.64L180,50.79c-1.26-.37-2-1-2-2.25,0-1.49,1.26-2.32,2.84-2.32a4.74,4.74,0,0,1,2.37.57V48.6a4,4,0,0,0-2.28-.74c-.57,0-1,.15-1,.54s.24.47.63.6l1.14.34c1.37.43,2,1.15,2,2.31,0,1.63-1.39,2.35-3.08,2.35a5,5,0,0,1-2.46-.61Z"/><path class="cls-1" d="M188.51,54a3.64,3.64,0,0,1-3.67-3.89A3.69,3.69,0,1,1,188.51,54Zm0-6c-1,0-1.68.86-1.68,2.16s.66,2.16,1.68,2.16,1.7-.86,1.7-2.16S189.53,48,188.51,48Z"/><path class="cls-1" d="M200.41,53.88h-1.59l-3.16-4.41v4.41h-1.9V46.35h1.84l2.91,4.14V46.35h1.9Z"/><rect class="cls-1" y="37.49" width="221" height="1.36"/><path class="cls-1" d="M167.46,13.49a.71.71,0,0,0-.8.7v.17a.19.19,0,0,1-.19.19h-.93a.19.19,0,0,1-.19-.19V14.2a2,2,0,0,1,2.07-2,2,2,0,0,1,2,2,2.15,2.15,0,0,1-.6,1.44L167,17.57c-.06.06-.07.19.09.19h2.15a.19.19,0,0,1,.19.2v.92a.18.18,0,0,1-.19.19h-3.8a.19.19,0,0,1-.2-.19V17.73a.3.3,0,0,1,.09-.24l2.51-2.67a1.14,1.14,0,0,0,.27-.63A.67.67,0,0,0,167.46,13.49Z"/><path class="cls-1" d="M173.05,12.18a2.26,2.26,0,0,1,2.16,2.14,12.37,12.37,0,0,1,0,2.72,2.16,2.16,0,0,1-4.32,0,12.37,12.37,0,0,1,0-2.72A2.26,2.26,0,0,1,173.05,12.18Zm-.81,2.1a13,13,0,0,0,0,2.79.82.82,0,0,0,.81.79.83.83,0,0,0,.82-.79,14.45,14.45,0,0,0,0-2.79.83.83,0,0,0-.82-.79A.82.82,0,0,0,172.24,14.28Z"/><path class="cls-1" d="M178.28,14.22a.11.11,0,0,0-.19-.08l-1.17,1.1a.19.19,0,0,1-.33-.15v-.94a.52.52,0,0,1,.16-.42l1.12-1.21a.64.64,0,0,1,.49-.24h1.07a.2.2,0,0,1,.2.2v5.19a.09.09,0,0,0,.09.09h1.08a.2.2,0,0,1,.2.2v.92a.19.19,0,0,1-.2.19h-4a.19.19,0,0,1-.19-.19V18a.2.2,0,0,1,.19-.2h1.36a.09.09,0,0,0,.1-.09Z"/><path class="cls-1" d="M184.59,13.69a.07.07,0,0,0-.07-.1h-2.47a.19.19,0,0,1-.19-.19v-.92a.19.19,0,0,1,.19-.2h3.73a.2.2,0,0,1,.19.2v1.16a.38.38,0,0,1-.05.19l-2.21,5.1a.21.21,0,0,1-.18.14h-1c-.18,0-.22-.14-.18-.23Z"/><path class="cls-1" d="M41.21,12.8,41,13.94H38l-.24,1.37H40.5l-.21,1.12h-2.7l-.26,1.49h3l-.19,1.15H35.84l1.1-6.27Z"/><path class="cls-1" d="M41.85,17.25a2.93,2.93,0,0,0,1.91.8c.65,0,1.19-.21,1.19-.79,0-.32-.24-.51-.61-.66l-.87-.34a1.59,1.59,0,0,1-1.26-1.51,2.18,2.18,0,0,1,2.4-2.05,3.19,3.19,0,0,1,2,.58l-.23,1.22a2.69,2.69,0,0,0-1.76-.69c-.59,0-1.1.2-1.1.71,0,.33.23.46.59.63l1,.38A1.63,1.63,0,0,1,46.27,17c0,1.46-1.19,2.14-2.51,2.14a3.62,3.62,0,0,1-2.14-.64Z"/><path class="cls-1" d="M47.63,12.8H53l-.21,1.14h-2l-.9,5.13H48.54l.91-5.13h-2Z"/><path class="cls-1" d="M53.18,17.52a.81.81,0,1,1,0,1.62.81.81,0,0,1,0-1.62Z"/><path class="cls-1" d="M72.94,24.2,70.79,30h-8L74.26,0h8.21L93.91,30h-8L83.79,24.2ZM78.36,9.29l-3.08,8.46h6.16Z"/><path class="cls-1" d="M137.19,24.2,135,30h-8L138.51,0h8.22l11.44,30h-8l-2.15-5.82Zm2.35-6.45h6.16l-3.08-8.46Z"/><polygon class="cls-1" points="113.38 0 118.93 18.25 125.07 0 133.35 0 122.37 30.02 115.19 30.02 110.49 14.57 105.8 30.02 98.61 30.02 87.63 0 95.91 0 102.06 18.25 107.61 0 113.38 0"/></svg>