<svg width="13" height="13" viewBox="0 0 13 13" fill="none" xmlns="http://www.w3.org/2000/svg">
<path d="M10.7383 0.26001C10.2183 0.26001 9.69825 0.46801 9.33425 0.83201L7.33225 2.86001H1.82025C0.962254 2.86001 0.260254 3.56201 0.260254 4.42001V11.18C0.260254 12.038 0.962254 12.74 1.82025 12.74H8.58025C9.43825 12.74 10.1403 12.038 10.1403 11.18V5.66801L12.1683 3.64001C12.9483 2.86001 12.9483 1.61201 12.1683 0.83201C11.7783 0.46801 11.2843 0.26001 10.7383 0.26001ZM9.10025 11.18C9.10025 11.466 8.86625 11.7 8.58025 11.7H1.82025C1.53425 11.7 1.30025 11.466 1.30025 11.18V4.42001C1.30025 4.13401 1.53425 3.90001 1.82025 3.90001H6.29225L4.49825 5.69401C3.45825 6.73401 2.86025 8.13801 2.88625 9.62001C2.88625 9.90601 3.12025 10.14 3.40625 10.14C4.88825 10.14 6.29225 9.56801 7.33225 8.52801L9.12625 6.73401V11.18H9.10025ZM11.4143 2.91201L6.55225 7.77401C5.85025 8.47601 4.91425 8.94401 3.92625 9.04801C4.05625 8.06001 4.49825 7.12401 5.20025 6.42201L10.0623 1.56001C10.4523 1.19601 11.0503 1.24801 11.4143 1.61201C11.7523 2.00201 11.7523 2.54801 11.4143 2.91201Z" fill="#EE3024"/>
</svg>
