<svg width="21" height="21" viewBox="0 0 21 21" fill="none" xmlns="http://www.w3.org/2000/svg">
<path fill-rule="evenodd" clip-rule="evenodd" d="M11.5849 2.1001C11.9711 2.1001 12.2899 2.40324 12.3127 2.78367L12.6263 4.48122C12.63 4.50082 12.6319 4.52079 12.6323 4.54095C12.6324 4.56036 12.6386 4.5753 12.6459 4.5865C12.9709 4.70447 13.2858 4.84914 13.5852 5.01807L14.9538 4.06327C15.2357 3.80642 15.6757 3.81183 15.9525 4.08231L17.2056 5.32738C17.3426 5.46103 17.4199 5.6434 17.421 5.83847C17.4221 6.02084 17.3564 6.19276 17.2355 6.32679L16.2603 7.74732C16.2484 7.76468 16.2349 7.78092 16.2202 7.79586C16.2077 7.80836 16.2015 7.82311 16.1989 7.83786C16.3452 8.15052 16.4656 8.47476 16.558 8.80498L18.2005 9.09711C18.3805 9.10495 18.5487 9.17831 18.6778 9.30636C18.8163 9.44375 18.8927 9.62631 18.8927 9.821L18.9 11.5839C18.902 11.775 18.8281 11.9576 18.6916 12.0955C18.5634 12.2253 18.3948 12.3005 18.2136 12.3098L16.5198 12.6255C16.4998 12.6292 16.4795 12.6313 16.4589 12.6315C16.4434 12.6316 16.4279 12.6369 16.4145 12.6462C16.2952 12.9716 16.1502 13.2863 15.982 13.585L16.9381 14.953C17.0598 15.0867 17.1266 15.2584 17.127 15.4404C17.1274 15.6344 17.0523 15.8166 16.9153 15.9534L15.6742 17.2059C15.5355 17.3448 15.3529 17.4204 15.1588 17.4204C14.9774 17.42 14.8073 17.3543 14.6746 17.2343L13.2546 16.2595C13.2384 16.2485 13.2232 16.236 13.2091 16.2226C13.1945 16.2084 13.1784 16.2016 13.1639 16.1988C12.8589 16.3422 12.5339 16.4622 12.1947 16.5567L11.9031 18.2014C11.8848 18.5833 11.5688 18.8904 11.1819 18.8932L10.5028 18.8952L9.41674 18.9001C9.02941 18.9001 8.71077 18.5958 8.68874 18.2148L8.37458 16.519C8.37085 16.4986 8.36879 16.4781 8.36861 16.4574C8.36842 16.4391 8.36207 16.424 8.35405 16.4122C8.03074 16.2961 7.71639 16.1518 7.41567 15.9821L6.04741 16.9369C5.9145 17.0586 5.74333 17.1258 5.56133 17.1266C5.36589 17.1266 5.18463 17.0525 5.04762 16.9175L3.79546 15.6734C3.65807 15.5386 3.58098 15.3557 3.58023 15.1599C3.57967 14.978 3.64501 14.8071 3.76503 14.6742L4.74167 13.2529C4.75287 13.2364 4.76557 13.2211 4.77938 13.2068C4.79077 13.1952 4.79842 13.1799 4.80178 13.1636C4.65413 12.8457 4.53354 12.521 4.44226 12.1945L2.79866 11.9036C2.41786 11.8844 2.11117 11.5684 2.10762 11.1827L2.10108 9.41594C2.10034 9.22143 2.17538 9.03868 2.31221 8.90148C2.44007 8.77306 2.60789 8.69876 2.78821 8.68943L4.48053 8.37434C4.5005 8.3706 4.52103 8.36855 4.54138 8.36836C4.55762 8.36818 4.57349 8.36295 4.58711 8.35399C4.70471 8.02938 4.84938 7.71447 5.0185 7.4145L4.0637 6.04716C3.94181 5.91332 3.87479 5.74178 3.87442 5.55978C3.87405 5.36602 3.9489 5.18402 4.08554 5.04719L5.32781 3.79447C5.59997 3.52119 6.03994 3.51074 6.32535 3.76348L7.74775 4.739C7.76567 4.75132 7.78247 4.76514 7.79778 4.78044C7.80842 4.79108 7.82205 4.79818 7.83717 4.80135C8.15039 4.65575 8.47519 4.53554 8.80653 4.44276L9.09679 2.79804C9.11583 2.41818 9.43149 2.11148 9.81677 2.10663L10.4998 2.10476L11.5836 2.1001H11.5849ZM11.3231 3.1501L10.5025 3.15456L10.0504 3.15635C10.0454 3.15653 10.0395 3.16296 10.0395 3.16885C10.0395 3.18885 10.0378 3.20867 10.0344 3.22832L9.74738 4.85268C9.74291 4.94768 9.72004 5.04198 9.68072 5.12752C9.63694 5.2227 9.55188 5.29252 9.4502 5.31699C9.08369 5.40556 8.38263 5.64774 8.04043 5.8115C8.01058 5.82578 7.97895 5.8356 7.94625 5.84078C7.71752 5.87721 7.4836 5.80757 7.31384 5.65417L5.9536 4.7218C5.93734 4.71055 5.92197 4.69805 5.90785 4.6843L5.00054 5.59341C5.01519 5.60788 5.02931 5.63824 5.04092 5.65502L5.9848 7.0058C6.04663 7.07295 6.0956 7.15117 6.13026 7.23849C6.16993 7.33868 6.16028 7.45172 6.10382 7.54351C5.90636 7.86513 5.58706 8.70577 5.46215 9.06311C5.45108 9.09454 5.43553 9.12419 5.41605 9.15115C5.28078 9.33759 5.0667 9.45402 4.83868 9.46724L3.21718 9.76922C3.19645 9.77297 3.17554 9.77493 3.15446 9.77493L3.15053 10.8728C3.1507 10.8781 3.15589 10.8837 3.16268 10.8837C3.18269 10.8837 3.20271 10.8853 3.22236 10.8889L4.84708 11.176C4.93893 11.1807 5.03024 11.2028 5.11888 11.2424C5.21609 11.2858 5.28757 11.3719 5.31223 11.4753C5.39782 11.8334 5.6536 12.6194 5.82051 12.9682C5.8348 12.9979 5.84463 13.0295 5.84981 13.062C5.88591 13.2888 5.81729 13.5218 5.66593 13.6925L4.72974 15.054C4.71759 15.0715 4.70401 15.0878 4.689 15.1028L5.59048 15.9933C5.60531 15.9783 5.63569 15.9644 5.65303 15.9524L7.00559 15.0091C7.07224 14.9479 7.14979 14.8991 7.23646 14.8641C7.33743 14.8232 7.44438 14.8472 7.54436 14.8898C7.91288 15.047 8.59261 15.4134 8.9484 15.5361C8.98181 15.5477 9.01308 15.5641 9.04132 15.5852C9.22859 15.7246 9.34117 15.933 9.35332 16.1607L9.65407 17.7829C9.65765 17.8028 9.65961 17.8228 9.65979 17.8428L10.2992 17.8501L10.9483 17.8481C10.9483 17.8278 10.9604 17.7962 10.964 17.776L11.2527 16.0722C11.257 15.9861 11.2767 15.9005 11.3126 15.8113C11.3539 15.7089 11.4458 15.6448 11.5495 15.6068C11.9814 15.4484 12.6159 15.2433 12.9825 15.0855C13.0142 15.0718 13.0469 15.0601 13.081 15.0549C13.3111 15.0206 13.5384 15.0874 13.7105 15.2398L15.071 16.2543C15.0885 16.2662 15.1048 16.2798 15.1198 16.295L15.986 15.4574C15.9715 15.4429 15.9581 15.4125 15.9465 15.3959L14.9708 13.9903C14.9104 13.9226 14.8613 13.8433 14.8275 13.759C14.7875 13.6588 14.7969 13.5454 14.8534 13.4533C15.0493 13.1338 15.3838 12.3713 15.511 12.012C15.5221 11.9811 15.5375 11.9518 15.5568 11.9252C15.6924 11.7386 15.9058 11.622 16.1327 11.6088L17.7851 11.3588C17.8059 11.355 17.8268 11.3531 17.8478 11.3531L17.8505 10.1294C17.8321 10.1319 17.7992 10.1173 17.7785 10.1135L16.155 9.82493C16.0586 9.82064 15.966 9.7985 15.8795 9.75867C15.7841 9.71492 15.714 9.62974 15.6895 9.52777C15.6018 9.16293 15.3052 8.36945 15.1403 8.02782C15.1249 7.99603 15.1146 7.96193 15.1096 7.92692C15.0769 7.69531 15.145 7.46887 15.2967 7.30047L16.2307 5.94093C16.2427 5.92343 16.2563 5.90718 16.2711 5.89236L15.4143 5.02127C15.3996 5.03609 15.3687 5.05002 15.3517 5.06181L13.9983 6.00542C13.9324 6.06507 13.8569 6.11293 13.7738 6.14811C13.672 6.19133 13.5555 6.18258 13.4613 6.12454C13.1405 5.92739 12.4048 5.59218 12.046 5.46664C12.0152 5.45592 11.9861 5.44074 11.9595 5.42164C11.7724 5.28752 11.6553 5.07341 11.6419 4.84411L11.3417 3.2201C11.3382 3.20081 11.3362 3.18135 11.336 3.16171C11.336 3.15599 11.3312 3.1501 11.3231 3.1501ZM10.5017 7.3501C11.3398 7.3501 12.128 7.67413 12.7209 8.26244C13.9538 9.48804 13.9613 11.4863 12.7378 12.7172C12.1444 13.3183 11.3499 13.6501 10.5015 13.6501C9.66649 13.6501 8.87787 13.3261 8.28106 12.738C7.04778 11.5144 7.03944 9.5163 8.26174 8.28277C8.85956 7.68125 9.6549 7.3501 10.5017 7.3501ZM10.5017 8.4001C9.93694 8.4001 9.40662 8.62098 9.0078 9.02206C8.19323 9.84402 8.19882 11.1763 9.02041 11.9916C9.41815 12.3837 9.94451 12.6001 10.5015 12.6001C11.0668 12.6001 11.596 12.3794 11.9916 11.9785C12.8079 11.1571 12.8027 9.82494 11.9806 9.00784C11.5859 8.61594 11.0604 8.4001 10.5017 8.4001Z" fill="#EE3024"/>
</svg>
